<svg width="22" height="21" viewBox="0 0 22 21" fill="none" xmlns="http://www.w3.org/2000/svg">
<path d="M9.87712 0.438073C10.2145 -0.141102 11.0512 -0.141102 11.3885 0.438074L14.3182 5.4681C14.4418 5.68027 14.6489 5.83071 14.8888 5.88267L20.578 7.11465C21.2331 7.2565 21.4917 8.05226 21.0451 8.55206L17.1666 12.8928C17.003 13.0759 16.9239 13.3193 16.9486 13.5636L17.535 19.355C17.6025 20.0218 16.9256 20.5136 16.3122 20.2434L10.9855 17.896C10.7608 17.797 10.5048 17.797 10.2802 17.896L4.95338 20.2434C4.34004 20.5136 3.66312 20.0218 3.73064 19.355L4.31702 13.5636C4.34175 13.3193 4.26266 13.0759 4.09907 12.8928L0.220558 8.55206C-0.226026 8.05226 0.0325324 7.2565 0.687604 7.11465L6.37678 5.88267C6.61675 5.83071 6.82382 5.68027 6.94739 5.4681L9.87712 0.438073Z" fill="#03E65B"/>
</svg>
